<svg xmlns="http://www.w3.org/2000/svg" width="236.735" height="40.125" viewBox="0 0 236.735 40.125" fill="none">
  <path d="M 8.324 29.684 C 8.324 30.185 7.98 30.434 7.293 30.434 L 1.031 30.434 C 0.344 30.434 0 30.192 0 29.705 C 0 29.533 0.049 29.389 0.147 29.277 C 0.249 29.161 0.451 29.042 0.75 28.919 L 1.515 28.66 C 1.785 28.553 2 28.425 2.16 28.274 C 2.323 28.125 2.468 27.909 2.595 27.629 C 2.724 27.345 2.87 26.954 3.029 26.458 L 10.14 5.273 C 10.289 4.788 10.322 4.442 10.238 4.236 C 10.157 4.025 9.875 3.86 9.39 3.738 C 9.014 3.631 8.753 3.51 8.604 3.373 C 8.453 3.238 8.38 3.077 8.38 2.889 C 8.38 2.404 8.73 2.16 9.432 2.16 L 17.812 2.16 C 18.513 2.16 18.863 2.396 18.863 2.868 C 18.863 3.084 18.788 3.257 18.639 3.387 C 18.494 3.513 18.246 3.624 17.896 3.717 C 17.503 3.811 17.268 3.939 17.194 4.102 C 17.124 4.262 17.149 4.537 17.272 4.93 L 24.761 26.998 C 24.947 27.55 25.162 27.966 25.406 28.246 C 25.648 28.523 26.013 28.714 26.5 28.821 C 26.873 28.944 27.124 29.066 27.25 29.193 C 27.38 29.319 27.447 29.484 27.447 29.684 C 27.447 30.185 27.096 30.434 26.395 30.434 L 18.359 30.434 C 17.671 30.434 17.328 30.185 17.328 29.684 C 17.328 29.338 17.591 29.084 18.12 28.919 L 19.551 28.695 C 19.901 28.616 20.078 28.467 20.084 28.246 C 20.092 28.022 20.015 27.66 19.852 27.159 L 17.755 20.925 L 6.991 20.925 L 5.231 26.233 C 4.988 26.973 4.93 27.515 5.056 27.86 C 5.186 28.202 5.561 28.481 6.178 28.695 L 7.531 28.94 C 8.059 29.1 8.324 29.347 8.324 29.684 Z M 7.573 19.186 L 17.187 19.186 L 12.384 4.782 L 7.573 19.186 Z" fill="currentColor" fill-rule="nonzero"></path>
  <path d="M 35.689 1.718 L 35.689 13.892 C 36.604 12.976 37.6 12.265 38.676 11.76 C 39.751 11.255 40.901 11.002 42.126 11.002 C 43.327 11.002 44.433 11.237 45.443 11.704 C 46.453 12.167 47.329 12.826 48.073 13.681 C 48.819 14.537 49.4 15.545 49.812 16.704 C 50.222 17.859 50.429 19.13 50.429 20.518 C 50.429 22.122 50.185 23.565 49.7 24.845 C 49.217 26.121 48.544 27.212 47.68 28.113 C 46.819 29.016 45.818 29.705 44.679 30.181 C 43.543 30.658 42.315 30.897 40.997 30.897 C 38.697 30.897 36.772 30.103 35.226 28.512 L 33.929 30.315 C 33.455 30.529 33.112 30.676 32.898 30.756 C 32.682 30.835 32.459 30.876 32.232 30.876 C 31.979 30.876 31.778 30.8 31.629 30.651 C 31.478 30.506 31.404 30.287 31.404 29.992 L 31.404 4.6 C 31.404 4.292 31.352 4.067 31.25 3.927 C 31.152 3.787 30.98 3.703 30.738 3.675 L 29.385 3.611 C 28.939 3.561 28.718 3.366 28.718 3.029 C 28.718 2.852 28.778 2.707 28.901 2.595 C 29.022 2.479 29.23 2.367 29.525 2.258 L 32.863 1.087 C 33.292 0.929 33.641 0.817 33.908 0.75 C 34.178 0.68 34.407 0.645 34.595 0.645 C 34.959 0.645 35.233 0.742 35.415 0.933 C 35.598 1.12 35.689 1.381 35.689 1.718 Z M 40.45 13.267 C 38.672 13.267 37.086 14.081 35.689 15.708 L 35.689 26.759 C 36.32 27.499 37.028 28.064 37.813 28.456 C 38.602 28.846 39.428 29.038 40.289 29.038 C 41.369 29.038 42.331 28.744 43.178 28.155 C 44.028 27.562 44.7 26.673 45.191 25.49 C 45.681 24.303 45.927 22.815 45.927 21.023 C 45.927 19.312 45.69 17.882 45.219 16.732 C 44.745 15.582 44.098 14.717 43.276 14.137 C 42.457 13.559 41.516 13.267 40.45 13.267 Z" fill="currentColor" fill-rule="nonzero"></path>
  <path d="M 59.52 1.718 L 59.52 13.892 C 60.435 12.976 61.431 12.265 62.507 11.76 C 63.582 11.255 64.732 11.002 65.957 11.002 C 67.158 11.002 68.264 11.237 69.274 11.704 C 70.284 12.167 71.16 12.826 71.904 13.681 C 72.65 14.537 73.231 15.545 73.643 16.704 C 74.053 17.859 74.26 19.13 74.26 20.518 C 74.26 22.122 74.016 23.565 73.53 24.845 C 73.048 26.121 72.375 27.212 71.511 28.113 C 70.65 29.016 69.649 29.705 68.51 30.181 C 67.374 30.658 66.146 30.897 64.828 30.897 C 62.528 30.897 60.603 30.103 59.057 28.512 L 57.76 30.315 C 57.286 30.529 56.943 30.676 56.729 30.756 C 56.513 30.835 56.29 30.876 56.063 30.876 C 55.81 30.876 55.609 30.8 55.459 30.651 C 55.309 30.506 55.235 30.287 55.235 29.992 L 55.235 4.6 C 55.235 4.292 55.183 4.067 55.081 3.927 C 54.983 3.787 54.811 3.703 54.569 3.675 L 53.216 3.611 C 52.77 3.561 52.549 3.366 52.549 3.029 C 52.549 2.852 52.609 2.707 52.732 2.595 C 52.853 2.479 53.061 2.367 53.356 2.258 L 56.694 1.087 C 57.123 0.929 57.472 0.817 57.739 0.75 C 58.009 0.68 58.238 0.645 58.426 0.645 C 58.79 0.645 59.064 0.742 59.246 0.933 C 59.429 1.12 59.52 1.381 59.52 1.718 Z M 64.281 13.267 C 62.503 13.267 60.917 14.081 59.52 15.708 L 59.52 26.759 C 60.151 27.499 60.859 28.064 61.644 28.456 C 62.433 28.846 63.259 29.038 64.12 29.038 C 65.2 29.038 66.162 28.744 67.009 28.155 C 67.859 27.562 68.531 26.673 69.022 25.49 C 69.512 24.303 69.758 22.815 69.758 21.023 C 69.758 19.312 69.521 17.882 69.05 16.732 C 68.576 15.582 67.929 14.717 67.107 14.137 C 66.288 13.559 65.347 13.267 64.281 13.267 Z" fill="currentColor" fill-rule="nonzero"></path>
  <path d="M 85.23 34.333 L 86.24 31.85 L 78.666 14.418 C 78.516 14.053 78.365 13.771 78.211 13.569 C 78.056 13.369 77.863 13.218 77.636 13.12 C 77.406 13.019 77.089 12.927 76.682 12.847 C 76.429 12.777 76.249 12.682 76.142 12.559 C 76.033 12.438 75.981 12.291 75.981 12.117 C 75.981 11.66 76.282 11.43 76.885 11.43 L 85.027 11.43 C 85.307 11.43 85.526 11.492 85.686 11.613 C 85.849 11.735 85.931 11.897 85.931 12.096 C 85.931 12.284 85.872 12.437 85.756 12.552 C 85.644 12.664 85.447 12.756 85.167 12.826 L 84.318 12.966 C 83.659 13.075 83.275 13.28 83.168 13.583 C 83.06 13.883 83.168 14.43 83.491 15.224 L 88.273 27.019 L 92.923 15.385 C 93.231 14.605 93.331 14.046 93.224 13.709 C 93.115 13.373 92.726 13.14 92.053 13.008 L 91.163 12.847 C 90.882 12.777 90.682 12.682 90.566 12.559 C 90.454 12.438 90.398 12.284 90.398 12.096 C 90.398 11.897 90.477 11.735 90.637 11.613 C 90.8 11.492 91.022 11.43 91.303 11.43 L 97.102 11.43 C 97.372 11.43 97.588 11.492 97.747 11.613 C 97.91 11.735 97.993 11.904 97.993 12.117 C 97.993 12.277 97.938 12.415 97.831 12.531 C 97.723 12.643 97.526 12.749 97.242 12.847 C 96.811 12.955 96.466 13.083 96.204 13.232 C 95.941 13.378 95.715 13.587 95.524 13.857 C 95.337 14.123 95.149 14.486 94.963 14.943 L 87.229 34.129 C 86.741 35.325 86.277 36.314 85.833 37.096 C 85.388 37.876 84.93 38.486 84.459 38.926 C 83.985 39.364 83.477 39.673 82.93 39.852 C 82.386 40.034 81.773 40.125 81.086 40.125 C 80.155 40.125 79.355 39.957 78.687 39.62 C 78.023 39.284 77.513 38.831 77.159 38.267 C 76.803 37.701 76.626 37.076 76.626 36.394 C 76.626 35.637 76.796 35.052 77.138 34.641 C 77.483 34.235 77.944 34.031 78.519 34.031 C 79.084 34.031 79.518 34.208 79.823 34.564 C 80.127 34.918 80.36 35.393 80.525 35.988 L 80.686 36.696 C 80.765 37.176 80.926 37.534 81.17 37.769 C 81.412 38.007 81.703 38.127 82.039 38.127 C 82.399 38.127 82.737 38.025 83.056 37.825 C 83.373 37.623 83.705 37.246 84.052 36.696 C 84.403 36.144 84.795 35.357 85.23 34.333 Z" fill="currentColor" fill-rule="nonzero"></path>
  <path d="M 100.618 5.168 C 99.687 5.168 98.984 4.94 98.507 4.481 C 98.03 4.023 97.792 3.433 97.792 2.707 C 97.792 2.17 97.925 1.701 98.192 1.297 C 98.462 0.891 98.823 0.573 99.272 0.344 C 99.724 0.116 100.227 0 100.779 0 C 101.761 0 102.564 0.344 103.192 1.031 C 103.817 1.718 104.131 2.796 104.131 4.264 C 104.131 5.298 103.973 6.218 103.661 7.026 C 103.353 7.836 102.943 8.532 102.434 9.116 C 101.924 9.702 101.368 10.173 100.765 10.533 C 100.166 10.889 99.577 11.127 98.998 11.248 C 98.367 11.371 98.006 11.223 97.911 10.806 C 97.883 10.615 97.932 10.44 98.058 10.28 C 98.188 10.117 98.455 9.963 98.858 9.817 C 99.531 9.547 100.103 9.204 100.576 8.787 C 101.048 8.366 101.407 7.917 101.656 7.44 C 101.903 6.963 102.028 6.504 102.028 6.059 C 102.028 5.775 101.957 5.554 101.817 5.4 C 101.677 5.245 101.41 5.168 101.018 5.168 L 100.618 5.168 Z" fill="currentColor" fill-rule="nonzero"></path>
  <path d="M 115.36 12.538 C 114.351 12.538 113.551 12.798 112.962 13.317 C 112.377 13.836 112.086 14.514 112.086 15.35 C 112.086 15.86 112.207 16.325 112.45 16.746 C 112.692 17.163 113.13 17.543 113.762 17.889 C 114.396 18.231 115.299 18.548 116.468 18.842 C 118.351 19.26 119.82 19.78 120.872 20.406 C 121.924 21.034 122.664 21.749 123.095 22.552 C 123.525 23.351 123.74 24.235 123.74 25.203 C 123.74 26.335 123.463 27.327 122.913 28.183 C 122.36 29.038 121.556 29.705 120.5 30.181 C 119.443 30.658 118.146 30.897 116.609 30.897 C 115.776 30.897 115.087 30.821 114.54 30.672 C 113.996 30.527 113.544 30.383 113.179 30.238 C 112.815 30.089 112.492 30.013 112.212 30.013 C 111.94 30.013 111.73 30.089 111.581 30.238 C 111.435 30.383 111.295 30.532 111.16 30.686 C 111.023 30.841 110.834 30.918 110.592 30.918 C 110.404 30.918 110.257 30.858 110.15 30.742 C 110.041 30.63 109.941 30.427 109.849 30.132 L 108.348 25.911 C 108.23 25.532 108.195 25.22 108.243 24.971 C 108.288 24.724 108.439 24.554 108.692 24.459 C 109.163 24.296 109.561 24.477 109.884 24.999 C 110.476 26.104 111.12 26.975 111.812 27.615 C 112.508 28.257 113.239 28.712 114.007 28.982 C 114.773 29.249 115.567 29.382 116.391 29.382 C 117.667 29.382 118.625 29.114 119.266 28.576 C 119.906 28.039 120.227 27.326 120.227 26.437 C 120.227 25.9 120.09 25.411 119.82 24.971 C 119.554 24.533 119.063 24.128 118.348 23.758 C 117.632 23.39 116.616 23.043 115.297 22.72 C 113.656 22.328 112.347 21.849 111.37 21.283 C 110.392 20.718 109.691 20.04 109.267 19.249 C 108.846 18.455 108.635 17.531 108.635 16.479 C 108.635 15.405 108.904 14.456 109.442 13.632 C 109.978 12.81 110.739 12.167 111.721 11.704 C 112.706 11.237 113.86 11.002 115.178 11.002 C 116.023 11.002 116.714 11.085 117.247 11.248 C 117.78 11.413 118.216 11.578 118.558 11.746 C 118.903 11.914 119.21 11.998 119.477 11.998 C 119.775 11.998 120.004 11.914 120.164 11.746 C 120.327 11.578 120.474 11.413 120.606 11.248 C 120.741 11.085 120.923 11.002 121.153 11.002 C 121.316 11.002 121.454 11.062 121.566 11.178 C 121.682 11.29 121.766 11.483 121.819 11.753 L 122.976 15.771 C 123.083 16.188 123.118 16.525 123.081 16.781 C 123.048 17.038 122.899 17.221 122.632 17.328 C 122.389 17.422 122.169 17.405 121.973 17.279 C 121.777 17.149 121.584 16.914 121.398 16.577 C 120.63 15.124 119.715 14.088 118.649 13.471 C 117.587 12.85 116.491 12.538 115.36 12.538 Z" fill="currentColor" fill-rule="nonzero"></path>
  <path d="M 140.667 2.16 L 155.085 2.16 C 155.542 2.16 155.902 2.09 156.165 1.949 C 156.426 1.809 156.659 1.672 156.866 1.536 C 157.076 1.401 157.317 1.332 157.588 1.332 C 157.939 1.332 158.209 1.422 158.402 1.599 C 158.598 1.772 158.749 2.06 158.858 2.461 L 160.232 8.822 C 160.353 9.495 160.144 9.886 159.608 9.993 C 159.084 10.101 158.693 9.879 158.437 9.327 C 157.949 8.173 157.522 7.237 157.154 6.522 C 156.784 5.806 156.419 5.258 156.06 4.874 C 155.704 4.491 155.318 4.228 154.903 4.088 C 154.485 3.948 153.994 3.878 153.43 3.878 L 150.239 3.878 L 150.239 27.524 C 150.239 28.09 150.576 28.455 151.249 28.618 L 152.56 28.856 C 152.841 28.94 153.037 29.051 153.149 29.186 C 153.265 29.317 153.325 29.484 153.325 29.684 C 153.325 30.185 152.995 30.434 152.336 30.434 L 143.409 30.434 C 142.75 30.434 142.42 30.185 142.42 29.684 C 142.42 29.484 142.477 29.317 142.589 29.186 C 142.704 29.051 142.906 28.94 143.192 28.856 L 144.503 28.618 C 145.176 28.455 145.513 28.09 145.513 27.524 L 145.513 3.878 L 142.322 3.878 C 141.756 3.878 141.263 3.948 140.843 4.088 C 140.425 4.228 140.04 4.491 139.686 4.874 C 139.33 5.258 138.965 5.806 138.592 6.522 C 138.222 7.237 137.796 8.173 137.315 9.327 C 137.058 9.879 136.665 10.101 136.137 9.993 C 135.599 9.886 135.391 9.495 135.513 8.822 L 136.888 2.461 C 136.995 2.06 137.147 1.772 137.343 1.599 C 137.54 1.422 137.81 1.332 138.157 1.332 C 138.441 1.332 138.685 1.401 138.886 1.536 C 139.086 1.672 139.323 1.809 139.594 1.949 C 139.864 2.09 140.222 2.16 140.667 2.16 Z" fill="currentColor" fill-rule="nonzero"></path>
  <path d="M 161.448 26.233 C 161.448 25.159 161.771 24.21 162.416 23.386 C 163.061 22.564 163.989 21.921 165.2 21.458 C 166.415 20.992 167.865 20.757 169.548 20.757 C 170.258 20.757 170.922 20.809 171.539 20.911 C 172.16 21.014 172.728 21.153 173.243 21.325 L 173.243 15.876 C 173.243 14.717 172.949 13.828 172.36 13.211 C 171.774 12.591 170.945 12.279 169.87 12.279 C 168.847 12.279 168.077 12.487 167.563 12.903 C 167.053 13.32 166.799 13.825 166.799 14.418 L 166.799 16.016 C 166.799 16.662 166.585 17.159 166.161 17.51 C 165.735 17.861 165.146 18.036 164.394 18.036 C 163.734 18.036 163.23 17.868 162.879 17.531 C 162.528 17.194 162.353 16.737 162.353 16.157 C 162.353 15.536 162.537 14.922 162.907 14.319 C 163.28 13.713 163.82 13.161 164.527 12.664 C 165.232 12.165 166.099 11.767 167.128 11.472 C 168.161 11.174 169.344 11.024 170.677 11.024 C 172.963 11.024 174.667 11.518 175.789 12.503 C 176.914 13.485 177.479 14.81 177.479 16.479 L 177.479 27.405 C 177.479 28.243 177.796 28.66 178.433 28.66 C 178.769 28.66 179.008 28.583 179.148 28.428 C 179.288 28.271 179.411 28.118 179.519 27.973 C 179.59 27.888 179.66 27.817 179.73 27.755 C 179.803 27.696 179.895 27.664 180.003 27.664 C 180.287 27.664 180.431 27.853 180.431 28.232 C 180.431 28.625 180.3 29.028 180.038 29.438 C 179.775 29.845 179.386 30.188 178.867 30.469 C 178.348 30.753 177.705 30.897 176.939 30.897 C 175.966 30.897 175.181 30.686 174.583 30.266 C 173.983 29.841 173.638 29.217 173.545 28.393 C 172.735 29.203 171.781 29.822 170.684 30.252 C 169.59 30.681 168.442 30.897 167.241 30.897 C 166.094 30.897 165.088 30.704 164.218 30.322 C 163.352 29.94 162.676 29.4 162.185 28.702 C 161.694 28.001 161.448 27.178 161.448 26.233 Z M 165.866 25.525 C 165.866 26.605 166.175 27.436 166.792 28.015 C 167.413 28.59 168.196 28.877 169.141 28.877 C 170.701 28.877 172.069 28.327 173.243 27.222 L 173.243 22.58 C 172.77 22.389 172.283 22.24 171.778 22.131 C 171.273 22.024 170.722 21.97 170.13 21.97 C 168.797 21.97 167.753 22.289 166.995 22.924 C 166.241 23.555 165.866 24.422 165.866 25.525 Z" fill="currentColor" fill-rule="nonzero"></path>
  <path d="M 188.813 1.718 L 188.813 13.892 C 189.728 12.976 190.724 12.265 191.8 11.76 C 192.875 11.255 194.025 11.002 195.25 11.002 C 196.451 11.002 197.557 11.237 198.567 11.704 C 199.577 12.167 200.453 12.826 201.197 13.681 C 201.944 14.537 202.524 15.545 202.936 16.704 C 203.346 17.859 203.553 19.13 203.553 20.518 C 203.553 22.122 203.309 23.565 202.824 24.845 C 202.341 26.121 201.668 27.212 200.804 28.113 C 199.943 29.016 198.942 29.705 197.803 30.181 C 196.667 30.658 195.44 30.897 194.121 30.897 C 191.821 30.897 189.896 30.103 188.35 28.512 L 187.053 30.315 C 186.579 30.529 186.236 30.676 186.022 30.756 C 185.806 30.835 185.584 30.876 185.356 30.876 C 185.103 30.876 184.902 30.8 184.753 30.651 C 184.602 30.506 184.528 30.287 184.528 29.992 L 184.528 4.6 C 184.528 4.292 184.476 4.067 184.374 3.927 C 184.276 3.787 184.104 3.703 183.862 3.675 L 182.509 3.611 C 182.063 3.561 181.842 3.366 181.842 3.029 C 181.842 2.852 181.902 2.707 182.025 2.595 C 182.146 2.479 182.354 2.367 182.649 2.258 L 185.987 1.087 C 186.416 0.929 186.765 0.817 187.032 0.75 C 187.302 0.68 187.531 0.645 187.719 0.645 C 188.083 0.645 188.357 0.742 188.539 0.933 C 188.722 1.12 188.813 1.381 188.813 1.718 Z M 193.574 13.267 C 191.797 13.267 190.21 14.081 188.813 15.708 L 188.813 26.759 C 189.444 27.499 190.152 28.064 190.938 28.456 C 191.726 28.846 192.552 29.038 193.413 29.038 C 194.493 29.038 195.455 28.744 196.302 28.155 C 197.152 27.562 197.824 26.673 198.315 25.49 C 198.805 24.303 199.051 22.815 199.051 21.023 C 199.051 19.312 198.814 17.882 198.343 16.732 C 197.869 15.582 197.222 14.717 196.4 14.137 C 195.582 13.559 194.64 13.267 193.574 13.267 Z" fill="currentColor" fill-rule="nonzero"></path>
  <path d="M 213.612 1.718 L 213.612 27.608 C 213.612 27.983 213.678 28.26 213.815 28.442 C 213.95 28.625 214.152 28.751 214.418 28.821 L 215.33 29.017 C 215.801 29.182 216.038 29.424 216.038 29.747 C 216.038 30.206 215.726 30.434 215.105 30.434 L 207.777 30.434 C 207.169 30.434 206.866 30.206 206.866 29.747 C 206.866 29.41 207.101 29.175 207.574 29.038 L 208.521 28.821 C 208.791 28.751 208.992 28.625 209.124 28.442 C 209.259 28.26 209.327 27.99 209.327 27.629 L 209.327 4.6 C 209.327 4.292 209.274 4.067 209.173 3.927 C 209.075 3.787 208.903 3.703 208.661 3.675 L 207.307 3.611 C 206.862 3.561 206.641 3.366 206.641 3.029 C 206.641 2.852 206.701 2.707 206.824 2.595 C 206.945 2.479 207.155 2.367 207.455 2.258 L 210.786 1.087 C 211.215 0.929 211.564 0.817 211.83 0.75 C 212.1 0.68 212.33 0.645 212.518 0.645 C 212.882 0.645 213.156 0.742 213.338 0.933 C 213.52 1.12 213.612 1.381 213.612 1.718 Z" fill="currentColor" fill-rule="nonzero"></path>
  <path d="M 236.714 18.597 C 236.714 19.892 235.987 20.539 234.533 20.539 L 222.865 20.539 C 222.957 22.152 223.306 23.506 223.909 24.6 C 224.516 25.69 225.326 26.514 226.336 27.075 C 227.346 27.632 228.51 27.909 229.828 27.909 C 231.16 27.909 232.317 27.615 233.299 27.026 C 234.284 26.433 234.979 25.643 235.382 24.656 C 235.69 24.254 235.966 24.053 236.209 24.053 C 236.4 24.053 236.535 24.13 236.616 24.284 C 236.695 24.438 236.735 24.631 236.735 24.859 C 236.683 25.697 236.441 26.479 236.006 27.208 C 235.575 27.934 234.993 28.576 234.26 29.137 C 233.525 29.694 232.675 30.125 231.707 30.434 C 230.74 30.742 229.675 30.897 228.517 30.897 C 227.09 30.897 225.789 30.672 224.611 30.224 C 223.433 29.771 222.418 29.121 221.567 28.274 C 220.721 27.424 220.063 26.409 219.597 25.231 C 219.134 24.053 218.903 22.738 218.903 21.283 C 218.903 19.807 219.123 18.441 219.569 17.187 C 220.012 15.936 220.657 14.849 221.504 13.927 C 222.354 13.001 223.378 12.284 224.576 11.774 C 225.776 11.26 227.123 11.002 228.615 11.002 C 230.273 11.002 231.709 11.323 232.92 11.963 C 234.13 12.605 235.066 13.497 235.725 14.642 C 236.385 15.788 236.714 17.107 236.714 18.597 Z M 228.054 12.622 C 227.067 12.622 226.192 12.896 225.431 13.443 C 224.674 13.986 224.067 14.751 223.615 15.736 C 223.166 16.718 222.915 17.882 222.865 19.228 L 231.343 19.228 C 232.016 19.228 232.352 18.932 232.352 18.337 C 232.352 16.548 231.963 15.147 231.188 14.137 C 230.417 13.127 229.372 12.622 228.054 12.622 Z" fill="currentColor" fill-rule="nonzero"></path>
</svg>